# xmcd
#
# Track frame offsets:
#	150
#	18226
#	34326
#	53755
#	76435
#	93042
#	113970
#	132660
#	150334
#	164957
#
# Disc length: 2527 seconds
#
# Revision: 0
# Processed by: cddbd v1.5.1PL0 Copyright (c) Steve Scherf et al.
# Submitted via: dBpowerAMP V4.0
#
DISCID=7c09dd0a
DTITLE=Kimmie Rhodes and Willie Nelson - Picture in  Frame
DYEAR=2003
DGENRE=Country
TTITLE0=Picture in a Frame
TTITLE1=Valentine
TTITLE2=Just One Love
TTITLE3=til I gain control again
TTITLE4=Love me like a song
TTITLE5=I just drove by
TTITLE6=Contrabandistas
TTITLE7=It always will be
TTITLE8=We've done this before
TTITLE9=Rhinestone Highway
EXTD=released by sunbird records - produced by willie nelson and kimmie rhodes
EXTT0=
EXTT1=
EXTT2=
EXTT3=
EXTT4=
EXTT5=
EXTT6=
EXTT7=
EXTT8=
EXTT9=
PLAYORDER=
